<svg width="108" height="23" viewBox="0 0 108 23" fill="none" xmlns="http://www.w3.org/2000/svg">
<path d="M10.79 22.21C8.83 22.21 7.03 21.75 5.39 20.83C3.75 19.91 2.45 18.64 1.49 17.02C0.53 15.38 0.05 13.53 0.05 11.47C0.05 9.43 0.53 7.6 1.49 5.98C2.45 4.34 3.75 3.06 5.39 2.14C7.03 1.22 8.83 0.76 10.79 0.76C12.77 0.76 14.57 1.22 16.19 2.14C17.83 3.06 19.12 4.34 20.06 5.98C21.02 7.6 21.5 9.43 21.5 11.47C21.5 13.53 21.02 15.38 20.06 17.02C19.12 18.64 17.83 19.91 16.19 20.83C14.55 21.75 12.75 22.21 10.79 22.21ZM10.79 18.46C12.05 18.46 13.16 18.18 14.12 17.62C15.08 17.04 15.83 16.22 16.37 15.16C16.91 14.1 17.18 12.87 17.18 11.47C17.18 10.07 16.91 8.85 16.37 7.81C15.83 6.75 15.08 5.94 14.12 5.38C13.16 4.82 12.05 4.54 10.79 4.54C9.53 4.54 8.41 4.82 7.43 5.38C6.47 5.94 5.72 6.75 5.18 7.81C4.64 8.85 4.37 10.07 4.37 11.47C4.37 12.87 4.64 14.1 5.18 15.16C5.72 16.22 6.47 17.04 7.43 17.62C8.41 18.18 9.53 18.46 10.79 18.46ZM37.1647 22L32.6347 14.95L28.5247 22H23.7847L30.3847 11.44L23.6947 1.06H28.5247L33.0547 8.08L37.1347 1.06H41.8747L35.3047 11.59L41.9947 22H37.1647ZM61.8411 1.06L54.7611 14.71V22H50.5611V14.71L43.4511 1.06H48.1911L52.6911 10.63L57.1611 1.06H61.8411ZM63.2434 11.5C63.2434 9.44 63.7034 7.6 64.6234 5.98C65.5634 4.34 66.8334 3.07 68.4334 2.17C70.0534 1.25 71.8634 0.789999 73.8634 0.789999C76.2034 0.789999 78.2534 1.39 80.0134 2.59C81.7734 3.79 83.0034 5.45 83.7034 7.57H78.8734C78.3934 6.57 77.7134 5.82 76.8334 5.32C75.9734 4.82 74.9734 4.57 73.8334 4.57C72.6134 4.57 71.5234 4.86 70.5634 5.44C69.6234 6 68.8834 6.8 68.3434 7.84C67.8234 8.88 67.5634 10.1 67.5634 11.5C67.5634 12.88 67.8234 14.1 68.3434 15.16C68.8834 16.2 69.6234 17.01 70.5634 17.59C71.5234 18.15 72.6134 18.43 73.8334 18.43C74.9734 18.43 75.9734 18.18 76.8334 17.68C77.7134 17.16 78.3934 16.4 78.8734 15.4H83.7034C83.0034 17.54 81.7734 19.21 80.0134 20.41C78.2734 21.59 76.2234 22.18 73.8634 22.18C71.8634 22.18 70.0534 21.73 68.4334 20.83C66.8334 19.91 65.5634 18.64 64.6234 17.02C63.7034 15.4 63.2434 13.56 63.2434 11.5ZM97.0107 22.21C95.0507 22.21 93.2507 21.75 91.6107 20.83C89.9707 19.91 88.6707 18.64 87.7107 17.02C86.7507 15.38 86.2707 13.53 86.2707 11.47C86.2707 9.43 86.7507 7.6 87.7107 5.98C88.6707 4.34 89.9707 3.06 91.6107 2.14C93.2507 1.22 95.0507 0.76 97.0107 0.76C98.9907 0.76 100.791 1.22 102.411 2.14C104.051 3.06 105.341 4.34 106.281 5.98C107.241 7.6 107.721 9.43 107.721 11.47C107.721 13.53 107.241 15.38 106.281 17.02C105.341 18.64 104.051 19.91 102.411 20.83C100.771 21.75 98.9707 22.21 97.0107 22.21ZM97.0107 18.46C98.2707 18.46 99.3807 18.18 100.341 17.62C101.301 17.04 102.051 16.22 102.591 15.16C103.131 14.1 103.401 12.87 103.401 11.47C103.401 10.07 103.131 8.85 102.591 7.81C102.051 6.75 101.301 5.94 100.341 5.38C99.3807 4.82 98.2707 4.54 97.0107 4.54C95.7507 4.54 94.6307 4.82 93.6507 5.38C92.6907 5.94 91.9407 6.75 91.4007 7.81C90.8607 8.85 90.5907 10.07 90.5907 11.47C90.5907 12.87 90.8607 14.1 91.4007 15.16C91.9407 16.22 92.6907 17.04 93.6507 17.62C94.6307 18.18 95.7507 18.46 97.0107 18.46Z" fill="url(#paint0_linear_6_228)"/>
<path d="M10.79 22.21C8.83 22.21 7.03 21.75 5.39 20.83C3.75 19.91 2.45 18.64 1.49 17.02C0.53 15.38 0.05 13.53 0.05 11.47C0.05 9.43 0.53 7.6 1.49 5.98C2.45 4.34 3.75 3.06 5.39 2.14C7.03 1.22 8.83 0.76 10.79 0.76C12.77 0.76 14.57 1.22 16.19 2.14C17.83 3.06 19.12 4.34 20.06 5.98C21.02 7.6 21.5 9.43 21.5 11.47C21.5 13.53 21.02 15.38 20.06 17.02C19.12 18.64 17.83 19.91 16.19 20.83C14.55 21.75 12.75 22.21 10.79 22.21ZM10.79 18.46C12.05 18.46 13.16 18.18 14.12 17.62C15.08 17.04 15.83 16.22 16.37 15.16C16.91 14.1 17.18 12.87 17.18 11.47C17.18 10.07 16.91 8.85 16.37 7.81C15.83 6.75 15.08 5.94 14.12 5.38C13.16 4.82 12.05 4.54 10.79 4.54C9.53 4.54 8.41 4.82 7.43 5.38C6.47 5.94 5.72 6.75 5.18 7.81C4.64 8.85 4.37 10.07 4.37 11.47C4.37 12.87 4.64 14.1 5.18 15.16C5.72 16.22 6.47 17.04 7.43 17.62C8.41 18.18 9.53 18.46 10.79 18.46ZM37.1647 22L32.6347 14.95L28.5247 22H23.7847L30.3847 11.44L23.6947 1.06H28.5247L33.0547 8.08L37.1347 1.06H41.8747L35.3047 11.59L41.9947 22H37.1647ZM61.8411 1.06L54.7611 14.71V22H50.5611V14.71L43.4511 1.06H48.1911L52.6911 10.63L57.1611 1.06H61.8411ZM63.2434 11.5C63.2434 9.44 63.7034 7.6 64.6234 5.98C65.5634 4.34 66.8334 3.07 68.4334 2.17C70.0534 1.25 71.8634 0.789999 73.8634 0.789999C76.2034 0.789999 78.2534 1.39 80.0134 2.59C81.7734 3.79 83.0034 5.45 83.7034 7.57H78.8734C78.3934 6.57 77.7134 5.82 76.8334 5.32C75.9734 4.82 74.9734 4.57 73.8334 4.57C72.6134 4.57 71.5234 4.86 70.5634 5.44C69.6234 6 68.8834 6.8 68.3434 7.84C67.8234 8.88 67.5634 10.1 67.5634 11.5C67.5634 12.88 67.8234 14.1 68.3434 15.16C68.8834 16.2 69.6234 17.01 70.5634 17.59C71.5234 18.15 72.6134 18.43 73.8334 18.43C74.9734 18.43 75.9734 18.18 76.8334 17.68C77.7134 17.16 78.3934 16.4 78.8734 15.4H83.7034C83.0034 17.54 81.7734 19.21 80.0134 20.41C78.2734 21.59 76.2234 22.18 73.8634 22.18C71.8634 22.18 70.0534 21.73 68.4334 20.83C66.8334 19.91 65.5634 18.64 64.6234 17.02C63.7034 15.4 63.2434 13.56 63.2434 11.5ZM97.0107 22.21C95.0507 22.21 93.2507 21.75 91.6107 20.83C89.9707 19.91 88.6707 18.64 87.7107 17.02C86.7507 15.38 86.2707 13.53 86.2707 11.47C86.2707 9.43 86.7507 7.6 87.7107 5.98C88.6707 4.34 89.9707 3.06 91.6107 2.14C93.2507 1.22 95.0507 0.76 97.0107 0.76C98.9907 0.76 100.791 1.22 102.411 2.14C104.051 3.06 105.341 4.34 106.281 5.98C107.241 7.6 107.721 9.43 107.721 11.47C107.721 13.53 107.241 15.38 106.281 17.02C105.341 18.64 104.051 19.91 102.411 20.83C100.771 21.75 98.9707 22.21 97.0107 22.21ZM97.0107 18.46C98.2707 18.46 99.3807 18.18 100.341 17.62C101.301 17.04 102.051 16.22 102.591 15.16C103.131 14.1 103.401 12.87 103.401 11.47C103.401 10.07 103.131 8.85 102.591 7.81C102.051 6.75 101.301 5.94 100.341 5.38C99.3807 4.82 98.2707 4.54 97.0107 4.54C95.7507 4.54 94.6307 4.82 93.6507 5.38C92.6907 5.94 91.9407 6.75 91.4007 7.81C90.8607 8.85 90.5907 10.07 90.5907 11.47C90.5907 12.87 90.8607 14.1 91.4007 15.16C91.9407 16.22 92.6907 17.04 93.6507 17.62C94.6307 18.18 95.7507 18.46 97.0107 18.46Z" fill="white"/>
<defs>
<linearGradient id="paint0_linear_6_228" x1="-1" y1="-1" x2="110.328" y2="14.3992" gradientUnits="userSpaceOnUse">
<stop stop-color="white"/>
<stop offset="0.270833" stop-color="#FFAA33"/>
<stop offset="0.625" stop-color="#AA33FF"/>
<stop offset="1" stop-color="white"/>
</linearGradient>
</defs>
</svg>
