<svg width="42" height="24" viewBox="0 0 42 24" fill="none" xmlns="http://www.w3.org/2000/svg">
<path d="M21.6227 16.0129C21.5171 15.164 21.2356 14.3442 20.7948 13.6023C20.457 13.0472 20.0174 12.556 19.4974 12.1527C18.9676 11.7479 18.3756 11.4252 17.7428 11.1962C17.5412 11.1173 17.3349 11.0501 17.1249 10.9951C17.1064 10.9951 17.074 10.9862 17.0725 10.9638C17.071 10.9415 17.0956 10.9281 17.1172 10.9176C17.1913 10.8834 17.2639 10.8446 17.335 10.8074C18.0145 10.477 18.6289 10.0343 19.1499 9.4993C19.6069 9.02668 19.953 8.4647 20.1647 7.85154C20.3367 7.34749 20.4324 6.82207 20.4488 6.29163C20.4687 5.8259 20.4476 5.35943 20.3856 4.89716C20.3037 4.18521 20.0735 3.49654 19.7089 2.87245C19.39 2.33295 18.962 1.86075 18.4502 1.48389C17.9116 1.09226 17.3114 0.78643 16.6724 0.578063C15.749 0.283566 14.7913 0.100916 13.8212 0.0342819C13.4304 0.00150515 13.0381 2.37616e-08 12.6473 2.37616e-08H0.0280944C0.0185385 -1.00188e-05 0.00931876 0.00316351 0.00188644 0.00895695V23.9136C-0.00583715 23.9389 -0.00583715 23.9658 0.00188644 23.9911H13.0133C13.1677 23.9762 13.3408 23.9911 13.5077 23.9762C13.7548 23.9658 14.0096 23.9628 14.2583 23.9315C14.8342 23.8585 15.4051 23.7525 15.968 23.6141C16.7025 23.4339 17.4123 23.1703 18.0825 22.829C18.8483 22.4528 19.5346 21.942 20.106 21.3228C20.5466 20.8401 20.9065 20.2942 21.1732 19.7048C21.4901 18.9598 21.6625 18.1649 21.6815 17.3597C21.7022 16.91 21.6825 16.4594 21.6227 16.0129ZM5.68128 4.19693C5.68128 4.1433 5.68117 4.11201 5.7584 4.1135H11.1938C11.8534 4.10436 12.5101 4.19842 13.1385 4.39208C13.4637 4.48502 13.7659 4.64072 14.0269 4.8497C14.2879 5.05867 14.5021 5.31658 14.6567 5.60781C14.8221 5.94843 14.9101 6.31928 14.9146 6.69542C14.941 7.14987 14.8772 7.60501 14.7262 8.03627C14.6215 8.31482 14.4604 8.57046 14.2522 8.78838C14.0441 9.0063 13.7929 9.18213 13.5137 9.30561C13.0114 9.53715 12.4676 9.67323 11.912 9.7064C11.6911 9.72279 11.4765 9.72128 11.2557 9.72276H5.78159C5.70127 9.72276 5.68731 9.70491 5.68731 9.63638C5.68114 7.8277 5.67807 6.01603 5.67807 4.20139L5.68128 4.19693ZM15.8754 17.622C15.7835 18.0426 15.5837 18.4345 15.2945 18.7616C15.0053 19.0887 14.6358 19.3407 14.2196 19.4947C13.7261 19.6881 13.2056 19.8101 12.675 19.8567C12.271 19.8937 11.8652 19.9091 11.4595 19.9029H5.78159C5.69818 19.9029 5.67977 19.8851 5.67977 19.8076V13.4012C5.67977 13.3297 5.69829 13.3089 5.77706 13.3089H11.8379C12.4541 13.2979 13.0685 13.3762 13.6606 13.5413C14.1406 13.6712 14.5882 13.8937 14.9764 14.1953C15.4014 14.5425 15.6989 15.0128 15.8245 15.5362C16.0109 16.2182 16.0257 16.9333 15.8677 17.622H15.8754Z" fill="white"/>
<path d="M41.7719 12.3949C41.5361 11.1657 41.073 9.98734 40.4049 8.91613C39.7331 7.82878 38.8024 6.91144 37.6898 6.24015C36.5773 5.56886 35.3149 5.16292 34.0073 5.05593C33.0652 4.96469 32.1149 4.98919 31.1792 5.1289C30.3153 5.26013 29.4756 5.51103 28.6862 5.87382C27.1483 6.56083 25.8449 7.65584 24.9283 9.03085C23.9913 10.453 23.4507 12.0843 23.359 13.7671C23.2943 14.7132 23.3461 15.6634 23.5134 16.5978C23.7185 17.793 24.155 18.9403 24.8001 19.9798C25.47 21.069 26.4038 21.9851 27.5215 22.6496C28.8731 23.4379 30.4052 23.8933 31.9824 23.9755C32.1332 23.9785 32.2837 23.9889 32.4334 24.0068H33.3725C33.3992 23.9957 33.4286 23.9921 33.4574 23.9964C33.7029 23.9964 33.9454 23.9666 34.191 23.9457C35.1257 23.8618 36.0432 23.6496 36.9157 23.3155C38.2069 22.8352 39.3283 22.008 40.147 20.9318C40.7503 20.1089 41.2259 19.2054 41.5586 18.25C41.5895 18.1606 41.622 18.0683 41.6529 17.9744H37.1938C37.1836 17.9729 37.1732 17.9735 37.1632 17.976C37.1533 17.9786 37.144 17.9831 37.1359 17.9892C37.1278 17.9954 37.121 18.003 37.1161 18.0117C37.1112 18.0205 37.1082 18.0301 37.1072 18.04C37.0515 18.2135 36.9686 18.3777 36.8616 18.5271C36.2904 19.3152 35.45 19.8843 34.4876 20.1347C33.4681 20.3998 32.3931 20.391 31.3784 20.1094C30.8081 19.9774 30.2814 19.7089 29.8471 19.3287C29.4127 18.9485 29.0847 18.4689 28.8932 17.9342C28.7046 17.4357 28.5826 16.916 28.5303 16.3877C28.5086 16.1925 28.4963 15.9929 28.4809 15.7918C28.4809 15.7471 28.4809 15.7247 28.5365 15.7307H41.931C41.9727 15.7307 41.9819 15.7143 41.9834 15.6756C41.9834 15.6055 41.9959 15.5266 41.9959 15.4625C42.0488 14.435 41.9736 13.4051 41.7719 12.3949ZM36.7488 12.5752H28.5749C28.4622 12.5752 28.4622 12.5752 28.4777 12.4739C28.5241 11.9532 28.6571 11.4431 28.8715 10.9632C29.113 10.4207 29.4888 9.94377 29.966 9.57413C30.4432 9.20448 31.0072 8.95346 31.6085 8.84311C32.4311 8.67203 33.284 8.68938 34.0984 8.89376C34.4984 8.99085 34.8736 9.16566 35.201 9.40749C35.5285 9.64932 35.8014 9.95309 36.0029 10.3002C36.3583 10.8952 36.6118 11.5417 36.7535 12.2146C36.7782 12.3055 36.7907 12.3964 36.8154 12.4903C36.8339 12.5573 36.8153 12.5826 36.7458 12.5812L36.7488 12.5752Z" fill="white"/>
<path d="M32.6596 4.07572H27.5332C27.4529 4.07572 27.4297 4.05789 27.4297 3.97892V1.37018C27.4297 1.29867 27.4467 1.2793 27.524 1.2793H37.783C37.8617 1.2793 37.8834 1.30014 37.8787 1.37314V3.98188C37.8787 4.05637 37.8617 4.07427 37.783 4.07427L32.6596 4.07572Z" fill="white"/>
</svg>
