<svg width="42" height="24" viewBox="0 0 42 24" fill="none" xmlns="http://www.w3.org/2000/svg">
<path d="M16.1989 8.50419L12.2607 23.2219H12.0236C10.5275 23.2219 9.03147 23.2185 7.53516 23.226C7.49902 23.2323 7.46197 23.2313 7.4262 23.2233C7.39042 23.2152 7.35665 23.2002 7.32685 23.1792C7.29706 23.1581 7.27185 23.1314 7.2527 23.1006C7.23355 23.0698 7.22085 23.0356 7.21534 22.9999C5.29509 17.0203 3.3707 11.0419 1.44217 5.06464C0.984459 3.64396 0.52666 2.22326 0.0687796 0.802573C0.0469285 0.735169 0.0280588 0.666788 0 0.573009H0.258239C1.98175 0.573009 3.70526 0.577167 5.42852 0.567642C5.63834 0.567642 5.71109 0.628939 5.76249 0.825289C7.0724 5.82473 8.38686 10.823 9.70587 15.8202C9.7235 15.8873 9.7456 15.9533 9.7826 16.0771C10.0657 14.9393 10.3333 13.8625 10.602 12.7858C11.6 8.77819 12.5971 4.77029 13.5931 0.762044C13.5949 0.732705 13.6029 0.70405 13.6167 0.67799C13.6306 0.65193 13.6498 0.629044 13.6733 0.610839C13.6968 0.592635 13.7239 0.579535 13.7528 0.572383C13.7818 0.56523 13.812 0.564201 13.8414 0.569357C15.4402 0.575543 17.039 0.575543 18.6378 0.569357C18.7959 0.569357 18.8461 0.623072 18.8819 0.767648C20.1234 5.76936 21.3682 10.7703 22.6162 15.7704C22.635 15.8456 22.6574 15.9198 22.6939 16.0507C22.7334 15.9367 22.7594 15.8751 22.7763 15.8109C24.0864 10.8338 25.3942 5.85607 26.6996 0.877802C26.7619 0.639203 26.8486 0.562996 27.1038 0.561531C28.7978 0.551762 30.4915 0.522712 32.1855 0.5C32.2505 0.5 32.3153 0.5 32.4089 0.5C32.3081 0.814795 32.2148 1.1081 32.1202 1.40116C29.8049 8.58015 27.4921 15.7596 25.1817 22.9396C25.1253 23.1152 25.0439 23.1506 24.8743 23.1499C23.3781 23.1437 21.882 23.1437 20.3859 23.1499C20.2016 23.1499 20.1236 23.1039 20.074 22.9186C18.8134 18.2042 17.5481 13.4908 16.2781 8.77844C16.2595 8.70957 16.2384 8.64095 16.1989 8.50419Z" fill="white"/>
<path d="M34.4111 19.6549C34.4 19.1577 34.4914 18.6634 34.6798 18.2019C34.8682 17.7403 35.1496 17.3211 35.5072 16.9694C35.8648 16.6178 36.291 16.3409 36.7603 16.1557C37.2296 15.9704 37.7322 15.8806 38.2377 15.8915C40.4526 15.9093 42.0197 17.5075 42.0066 19.7357C41.9941 21.8775 40.3598 23.4503 38.1578 23.439C36.0035 23.4278 34.4004 21.8091 34.4111 19.6549Z" fill="white"/>
</svg>
